<svg height="480pt" viewBox="0 0 480 480" width="480pt" xmlns="http://www.w3.org/2000/svg"><path d="m392 240c0 83.949219-68.050781 152-152 152s-152-68.050781-152-152 68.050781-152 152-152 152 68.050781 152 152zm0 0" fill="#fdb62f"/><path d="m311.015625 105.65625c37.402344 49.628906 43.492187 116.144531 15.726563 171.742188-27.761719 55.59375-84.601563 90.6875-146.742188 90.601562-8.449219-.0625-16.882812-.777344-25.222656-2.136719 46.597656 31.707031 106.914062 35.023438 156.710937 8.621094s80.890625-78.195313 80.792969-134.554687c-.097656-56.363282-31.378906-108.046876-81.265625-134.273438zm0 0" fill="#ff9f19"/><g fill="#fdd384"><path d="m232 432h16v48h-16zm0 0"/><path d="m232 0h16v48h-16zm0 0"/><path d="m329.070312 410.273438 13.855469-8 24 41.570312-13.855469 8zm0 0"/><path d="m113.074219 36.15625 13.859375-8 24 41.570312-13.859375 8zm0 0"/><path d="m402.28125 342.925781 8-13.855469 41.570312 24-8 13.855469zm0 0"/><path d="m28.152344 126.929688 8-13.855469 41.570312 23.996093-8 13.859376zm0 0"/><path d="m432 232h48v16h-48zm0 0"/><path d="m0 232h48v16h-48zm0 0"/><path d="m402.28125 137.070312 41.570312-23.996093 8 13.855469-41.574218 23.996093zm0 0"/><path d="m28.15625 353.070312 41.570312-23.996093 8 13.859375-41.574218 23.996094zm0 0"/><path d="m329.074219 69.730469 24-41.570313 13.855469 8-23.996094 41.570313zm0 0"/><path d="m113.066406 443.847656 23.996094-41.574218 13.859375 8-23.996094 41.570312zm0 0"/></g></svg>