<svg height="463pt" viewBox="0 -3 463.95714 463" width="463pt" xmlns="http://www.w3.org/2000/svg"><path d="m40 256.480469h16v48h-16zm0 0" fill="#6fb944"/><path d="m24 272.480469h48v16h-48zm0 0" fill="#6fb944"/><path d="m24 48.480469c-13.253906 0-24-10.746094-24-24 0-13.257813 10.746094-24 24-24s24 10.742187 24 24c0 13.253906-10.746094 24-24 24zm0-32c-4.417969 0-8 3.578125-8 8 0 4.417969 3.582031 8 8 8s8-3.582031 8-8c0-4.421875-3.582031-8-8-8zm0 0" fill="#ee3446"/><path d="m240 160.480469c0 4.417969-3.582031 8-8 8s-8-3.582031-8-8c0-4.421875 3.582031-8 8-8s8 3.578125 8 8zm0 0" fill="#fecf2c"/><path d="m56 376.480469h336v80h-336zm0 0" fill="#0f71c7"/><path d="m312 264.480469 80 112h-336l80-112v-32h48v32h80v-32h48zm0 0" fill="#168de2"/><path d="m115.679688 165.359375c1.121093 7.753906-3.507813 15.183594-10.960938 17.597656l-52.320312 16.722657c-4.566407 1.46875-9.550782.8125-13.582032-1.792969s-6.679687-6.878907-7.214844-11.648438l-1.523437-13.359375 1.601563-.160156 81.199218-26h.082032zm0 0" fill="#0f71c7"/><path d="m383.601562 59.917969 6.398438 11.441406c2.308594 4.1875 2.625 9.1875.859375 13.632813-1.765625 4.441406-5.425781 7.863281-9.980469 9.328124l-52.320312 16.796876c-7.453125 2.394531-15.539063-.957032-19.117188-7.917969l-8.640625-16.800781zm0 0" fill="#0f71c7"/><path d="m359.761719 17.117188 23.839843 42.800781-82.800781 26.480469-7.441406-14.398438c-64.820313 4.253906-127.597656 24.390625-182.800781 58.636719l2.402344 16.082031h-.082032l-81.199218 26-1.601563.160156-5.4375-48.242187c88.515625-86.652344 212.710937-126.496094 335.121094-107.519531zm0 0" fill="#168de2"/><path d="m223.433594 349.679688c-34.953125 0-72.578125-9.601563-72.578125-30.601563s37.625-30.597656 72.578125-30.597656c34.949218 0 72.566406 9.597656 72.566406 30.597656s-37.601562 30.601563-72.566406 30.601563zm0-45.199219c-37.121094 0-56.578125 10.847656-56.578125 14.597656 0 3.753906 19.457031 14.601563 56.578125 14.601563 37.117187 0 56.566406-10.847657 56.566406-14.601563 0-3.75-19.449219-14.597656-56.566406-14.597656zm0 0" fill="#d8d8d3"/><g fill="#fecf2c"><path d="m394.113281 271.117188-11.3125-11.3125c33.570313-33.65625 33.570313-88.132813 0-121.789063l11.3125-11.3125c39.804688 39.910156 39.804688 104.507813 0 144.414063zm0 0"/><path d="m422.398438 299.398438-11.308594-11.3125c49.160156-49.285157 49.160156-129.066407 0-178.351563l11.308594-11.3125c55.410156 55.535156 55.410156 145.441406 0 200.976563zm0 0"/><path d="m365.824219 242.878906-11.3125-11.3125c17.984375-18.023437 17.984375-47.203125 0-65.222656l11.3125-11.3125c24.21875 24.273438 24.21875 63.570312 0 87.847656zm0 0"/></g></svg>