<svg height="511pt" viewBox="-30 0 511 511.99972" width="511pt" xmlns="http://www.w3.org/2000/svg"><path d="m425.960938 240h-35v-205c0-19.300781-15.699219-35-35-35h-320.460938c-19.300781 0-35 15.699219-35 35v350c0 19.296875 15.699219 35 35 35h145.464844v5c0 13.785156 11.214844 25 25 25h35v47c0 13.652344 16.84375 20.15625 26.042968 10.148438l52.519532-57.148438h106.433594c13.785156 0 25-11.214844 25-25v-160c0-13.785156-11.214844-25-25-25zm-390.460938 150c-2.757812 0-5-2.246094-5-5v-350c0-2.757812 2.242188-5 5-5h320.460938c2.757812 0 5 2.242188 5 5v205h-155c-13.785157 0-25 11.214844-25 25v125zm385.460938 30h-108.019532c-4.199218 0-8.203125 1.757812-11.046875 4.847656l-30.933593 33.660156v-23.507812c0-8.285156-6.714844-15-15-15h-45v-150h210zm0 0"/><path d="m75.964844 150h90c8.28125 0 15-6.714844 15-15v-60c0-8.285156-6.71875-15-15-15h-90c-8.285156 0-15 6.714844-15 15v60c0 8.285156 6.714844 15 15 15zm15-60h60v30h-60zm0 0"/><path d="m225.964844 90h89.996094c8.285156 0 15-6.714844 15-15s-6.714844-15-15-15h-89.996094c-8.285156 0-15 6.714844-15 15s6.714844 15 15 15zm0 0"/><path d="m225.964844 150h89.996094c8.285156 0 15-6.714844 15-15s-6.714844-15-15-15h-89.996094c-8.285156 0-15 6.714844-15 15s6.714844 15 15 15zm0 0"/><path d="m75.964844 210h239.996094c8.285156 0 15-6.714844 15-15s-6.714844-15-15-15h-239.996094c-8.285156 0-15 6.714844-15 15s6.714844 15 15 15zm0 0"/><path d="m135.964844 240h-60c-8.285156 0-15 6.714844-15 15 0 8.28125 6.714844 15 15 15h60c8.28125 0 15-6.71875 15-15 0-8.285156-6.71875-15-15-15zm0 0"/><path d="m135.964844 300h-60c-8.285156 0-15 6.714844-15 15 0 8.28125 6.714844 15 15 15h60c8.28125 0 15-6.71875 15-15 0-8.285156-6.71875-15-15-15zm0 0"/><path d="m342.960938 360h-87c-8.28125 0-14.996094 6.714844-14.996094 15 0 8.28125 6.714844 15 14.996094 15h87c8.285156 0 15-6.71875 15-15 0-8.285156-6.714844-15-15-15zm0 0"/><path d="m255.960938 300c-8.28125 0-14.996094 6.714844-14.996094 15 0 8.28125 6.714844 15 14.996094 15h120c8.285156 0 15-6.71875 15-15 0-8.285156-6.714844-15-15-15zm0 0"/></svg>