<svg height="457pt" viewBox="0 -10 457.14286 457" width="457pt" xmlns="http://www.w3.org/2000/svg"><path d="m428.320312 180.503906c-8.578124-6.5625-18.296874-14.003906-20.277343-20.082031-2.113281-6.535156 1.464843-18.597656 4.617187-29.234375 4.972656-16.765625 10.117188-34.105469.847656-46.894531-9.332031-12.71875-27.445312-13.171875-44.957031-13.609375-11.046875-.277344-23.570312-.589844-29.03125-4.601563-5.355469-3.882812-9.46875-15.566406-13.101562-25.878906-5.886719-16.707031-11.972657-33.988281-27.261719-38.894531-14.660156-4.800782-29.386719 5.320312-43.648438 15.101562-9.316406 6.390625-19.875 13.636719-27.011718 13.636719-7.121094 0-17.640625-7.226563-26.914063-13.601563-14.269531-9.808593-29.027343-19.933593-43.714843-15.152343-15.253907 4.933593-21.34375 22.222656-27.234376 38.945312-3.625 10.308594-7.734374 21.988281-13.015624 25.855469-5.488282 3.984375-17.996094 4.3125-29.035157 4.601562-17.574219.460938-35.742187.933594-44.957031 13.769532-9.253906 12.65625-4.125 29.960937.839844 46.699218 3.164062 10.6875 6.757812 22.800782 4.652344 29.375-1.972657 6.007813-11.65625 13.398438-20.203126 19.917969-14.214843 10.855469-28.914062 22.074219-28.914062 38.386719s14.699219 27.535156 28.914062 38.382812c8.546876 6.523438 18.230469 13.914063 20.1875 19.886719 2.113282 6.53125-1.464843 18.589844-4.621093 29.230469-4.972657 16.765625-10.113281 34.105469-.847657 46.894531 9.335938 12.71875 27.449219 13.175781 44.960938 13.613281 11.042969.277344 23.566406.589844 29.03125 4.597657 5.371094 3.894531 9.488281 15.621093 13.117188 25.964843 5.847656 16.667969 11.894531 33.902344 27.109374 38.820313 14.722657 4.800781 29.472657-5.34375 43.730469-15.144531 9.273438-6.375 19.792969-13.605469 26.914063-13.605469s17.632812 7.230469 26.910156 13.605469c11.746094 8.070312 23.824219 16.375 35.9375 16.375 2.59375 0 5.183594-.382813 7.777344-1.226563 15.253906-4.929687 21.34375-22.222656 27.230468-38.945312 3.628907-10.308594 7.742188-21.984375 12.984376-25.816407 5.464843-3.929687 17.941406-4.238281 28.945312-4.503906 17.644531-.433594 35.878906-.878906 45.238281-13.746094 9.253907-12.65625 4.125-29.964843-.835937-46.699218-3.164063-10.671875-6.75-22.765625-4.644532-29.402344 1.992188-6.003906 11.65625-13.386719 20.1875-19.898438 14.21875-10.851562 28.917969-22.070312 28.917969-38.382812 0-16.28125-14.652343-27.492188-28.824219-38.339844zm-11.1875 62.1875c-11.175781 8.535156-22.738281 17.355469-26.476562 28.761719-.003906.019531-.011719.035156-.019531.054687-3.851563 12.003907.402343 26.34375 4.515625 40.214844 3.523437 11.886719 7.515625 25.359375 3.59375 30.726563-4.058594 5.585937-18.328125 5.933593-30.910156 6.242187-14.316407.351563-29.121094.714844-39.234376 7.976563-9.875 7.222656-14.765624 21.117187-19.496093 34.550781-4.203125 11.941406-8.972657 25.476562-15.625 27.625-6.113281 2.042969-17.605469-5.875-27.71875-12.828125-12.03125-8.265625-24.46875-16.816406-37.265625-16.816406-12.800782 0-25.242188 8.550781-37.273438 16.820312-10.117187 6.949219-21.574218 14.835938-27.730468 12.820313-6.605469-2.136719-11.328126-15.601563-15.496094-27.480469-4.742188-13.503906-9.640625-27.464844-19.59375-34.683594-10.050782-7.375-24.945313-7.742187-39.351563-8.105469-12.492187-.3125-26.648437-.664062-30.644531-6.105468-3.945312-5.453125.066406-18.984375 3.605469-30.921875 4.105469-13.828125 8.34375-28.125 4.480469-40.089844-3.742188-11.40625-15.300782-20.226563-26.484376-28.761719-10.183593-7.773437-21.722656-16.582031-21.722656-23.847656 0-7.269531 11.539063-16.078125 21.722656-23.847656 11.183594-8.53125 22.742188-17.359375 26.5-28.820313 3.847657-12.003906-.402343-26.34375-4.511718-40.207031-3.527344-11.890625-7.523438-25.363281-3.566406-30.773438 3.96875-5.523437 18.132812-5.894531 30.628906-6.21875 14.371094-.375 29.226562-.761718 39.328125-8.113281 9.875-7.222656 14.765625-21.113281 19.496093-34.550781 4.207032-11.9375 8.96875-25.472656 15.621094-27.621094 6.152344-2.015625 17.609375 5.875 27.71875 12.820313 12.03125 8.273437 24.472656 16.820312 37.273438 16.820312 12.808594 0 25.289062-8.5625 37.355468-16.84375 10.105469-6.925781 21.535157-14.8125 27.660157-12.789062 6.703125 2.152343 11.460937 15.660156 15.65625 27.582031 4.742187 13.457031 9.644531 27.375 19.574219 34.574219 10.046874 7.375 24.945312 7.746093 39.351562 8.109375 12.492188.3125 26.648438.664062 30.644531 6.105468 3.945313 5.449219-.0625 18.976563-3.605469 30.914063-4.101562 13.832031-8.34375 28.136719-4.484374 40.082031 3.746093 11.5 15.34375 20.375 26.558593 28.960938 10.144531 7.765625 21.648438 16.570312 21.648438 23.816406 0 7.265625-11.539063 16.074219-21.722657 23.847656zm0 0"/><path d="m155.644531 231.363281-30.726562-50.136719h-14.75v75.078126h14.082031v-48.957032l30.269531 48.957032h15.207031v-75.078126h-14.082031zm0 0"/><path d="m200.917969 223.222656h37.691406v-12.648437h-37.691406v-16.644531h40.507812v-12.703126h-55.667969v75.078126h57.101563v-12.648438h-41.941406zm0 0"/><path d="m320.191406 233.667969-13.164062-52.441407h-18.023438l-13.726562 51.574219-11.316406-51.574219h-15.519532l17.925782 75.078126h16.4375l14.902343-56.128907 14.957031 56.128907h16.078126l18.234374-75.078126h-15.261718zm0 0"/></svg>