<?xml version="1.0" encoding="iso-8859-1"?>
<!-- Generator: Adobe Illustrator 19.0.0, SVG Export Plug-In . SVG Version: 6.00 Build 0)  -->
<svg version="1.1" id="Layer_1" xmlns="http://www.w3.org/2000/svg" xmlns:xlink="http://www.w3.org/1999/xlink" x="0px" y="0px"
	 viewBox="0 0 512 512" style="enable-background:new 0 0 512 512;" xml:space="preserve">
<g>
	<g>
		<path d="M490.626,153.442c-13.697-31.292-33.236-59.158-58.073-82.819c-3.207-3.055-8.28-2.933-11.335,0.275
			c-3.054,3.206-2.931,8.28,0.275,11.333c48.024,45.751,74.473,107.464,74.473,173.769c0,132.318-107.648,239.967-239.967,239.967
			S16.033,388.318,16.033,256S123.682,16.033,256,16.033c48.336,0,94.93,14.306,134.742,41.369
			c3.661,2.489,8.647,1.538,11.137-2.122c2.489-3.662,1.538-8.648-2.123-11.137C357.274,15.265,307.565,0,256,0
			C187.62,0,123.333,26.628,74.981,74.981C26.629,123.333,0,187.62,0,256s26.629,132.667,74.981,181.019
			C123.333,485.372,187.62,512,256,512s132.667-26.628,181.019-74.981C485.371,388.667,512,324.38,512,256
			C512,220.348,504.808,185.842,490.626,153.442z"/>
	</g>
</g>
<g>
	<g>
		<path d="M372.333,108.552l-154.176,71.771c-4.014,1.868-5.753,6.638-3.884,10.652s6.638,5.755,10.65,3.885l95.106-44.274
			l-46.237,37.431l-106.107,85.896l-58.036-25.392l81.326-37.858c4.014-1.87,5.753-6.638,3.884-10.652
			c-1.868-4.014-6.639-5.755-10.65-3.885l-87.54,40.752c-4.654,2.166-7.592,6.905-7.474,12.035c0.115,5.02,3.149,9.538,7.748,11.55
			l64.802,28.35l18.979,113.873c1.168,7.041,10.702,9.046,14.613,3.075l53.836-82.171l101.811,47.512
			c8.157,3.81,17.864-2.012,18.39-10.966l14.344-243.849c0.015-0.226,0.014-0.458,0.009-0.685
			C383.567,109.927,377.471,106.176,372.333,108.552z M190.018,360.931l-12.404-74.428l126.369-102.299l-96.718,108.441
			c-0.87,0.976-1.516,2.204-1.816,3.479L190.018,360.931z M207.049,358.631l11.72-49.228l15.724,7.338L207.049,358.631z
			 M243.371,303.191l-16.967-7.917l83.469-93.586L297.8,220.116L243.371,303.191z M353.637,354.649l-95.586-44.607l107.897-164.684
			L353.637,354.649z"/>
	</g>
</g>
<g>
</g>
<g>
</g>
<g>
</g>
<g>
</g>
<g>
</g>
<g>
</g>
<g>
</g>
<g>
</g>
<g>
</g>
<g>
</g>
<g>
</g>
<g>
</g>
<g>
</g>
<g>
</g>
<g>
</g>
</svg>
